<?xml version="1.0" encoding="UTF-8" standalone="no"?>
<!-- Created with Inkscape (http://www.inkscape.org/) -->

<svg
   width="21.999998"
   height="22"
   viewBox="0 0 5.8208327 5.8208333"
   version="1.1"
   id="svg1"
   xml:space="preserve"
   xmlns:inkscape="http://www.inkscape.org/namespaces/inkscape"
   xmlns:sodipodi="http://sodipodi.sourceforge.net/DTD/sodipodi-0.dtd"
   xmlns="http://www.w3.org/2000/svg"
   xmlns:svg="http://www.w3.org/2000/svg"><sodipodi:namedview
     id="namedview1"
     pagecolor="#ffffff"
     bordercolor="#000000"
     borderopacity="0.25"
     inkscape:showpageshadow="2"
     inkscape:pageopacity="0.0"
     inkscape:pagecheckerboard="0"
     inkscape:deskcolor="#d1d1d1"
     inkscape:document-units="mm" /><defs
     id="defs1" /><g
     inkscape:label="Ebene 1"
     inkscape:groupmode="layer"
     id="layer1"
     transform="translate(-6.4889375,9.3117037)"><g
       id="g5"><circle
         style="fill:#000000;fill-opacity:1;stroke-width:1.02322;stroke-linejoin:round;stroke-miterlimit:0"
         id="path1-6"
         cx="9.399354"
         cy="-6.4012871"
         r="2.9104166" /><path
         d="M 10.656426,-7.7150144 H 8.2307934 c -7.383e-4,0 -0.00161,0 -0.00255,0 -0.1137849,0 -0.2061227,0.091483 -0.207451,0.2048881 v 2.4362612 c 0.00132,0.1135 0.093669,0.2050779 0.207451,0.2050779 9.453e-4,0 0.0018,0 0.00274,0 h 2.4251586 c 7.38e-4,0 0.0017,0 0.0026,0 0.113879,0 0.206406,-0.091388 0.208209,-0.204888 v -1.931e-4 -2.4360713 c -0.0018,-0.1135947 -0.09433,-0.2050778 -0.208304,-0.2050778 -9.45e-4,0 -0.0018,0 -0.0027,0 h 9.3e-5 z M 8.8649116,-5.2895717 H 8.4422292 V -6.6476792 H 8.8649116 Z M 8.6536659,-6.8334925 c -0.1352319,0 -0.2447465,-0.1096089 -0.2447465,-0.2447459 0,-0.135137 0.1096091,-0.244746 0.2447465,-0.244746 0.1351364,0 0.2447455,0.1095142 0.2447455,0.2446511 v 0 c 0,9.26e-5 0,1.929e-4 0,3.782e-4 0,0.135042 -0.1095136,0.2445562 -0.2445555,0.2445562 -9.26e-5,0 -1.929e-4,0 -2.864e-4,0 v 0 z m 1.7918931,1.5439208 H 10.02411 v -0.6604061 c 0,-0.1575333 -0.0032,-0.3601437 -0.2195973,-0.3601437 -0.2197873,0 -0.2532871,0.1713886 -0.2532871,0.3485662 v 0.6720785 H 9.1297769 V -6.6475843 H 9.534618 v 0.185149 h 0.00548 c 0.078584,-0.1323848 0.2207397,-0.2196924 0.3833028,-0.2196924 0.0058,0 0.01148,9.26e-5 0.01718,2.856e-4 h -8.44e-4 c 0.4270482,0 0.5060042,0.2810924 0.5060042,0.6469302 v 0.7454357 z"
         id="path1-62"
         style="fill:#ffffff;fill-opacity:1;stroke-width:0.0948998" /></g></g></svg>
